<?xml version="1.0" encoding="UTF-8"?>
<svg xmlns="http://www.w3.org/2000/svg" xmlns:xlink="http://www.w3.org/1999/xlink" width="240pt" height="240pt" viewBox="0 0 240 240" version="1.1">
<g id="surface1172673">
<path style=" stroke:none;fill-rule:nonzero;fill:rgb(0%,0%,0%);fill-opacity:1;" d="M 176.25 155.003906 C 181.414062 158.621094 185 165 185 170 C 185 176.25 183.75 180.625 179.375 185 C 179.375 185 180 185.625 183.125 185.625 C 200.625 185.625 205 175.90625 205 172.5 C 205 162.5 195 160 195 160 C 198.125 159.925781 201.089844 160.171875 204.03125 160.925781 C 212.445312 163.078125 218.746094 167.796875 222.675781 175.546875 C 224.203125 178.566406 224.953125 181.574219 224.996094 184.515625 C 225.074219 190.308594 222.496094 196.246094 216.871094 201.246094 C 207.625 209.46875 190.625 210 190 210 C 191.644531 211.816406 196.25 215.625 203.125 215.625 C 206.25 215.625 210 215 210 215 C 209.820312 215.234375 206.25 219.375 196.800781 222.878906 C 192.921875 224.175781 188.988281 224.941406 185 225 C 182.648438 225.035156 180.285156 224.824219 177.898438 224.339844 C 168.371094 222.410156 161.824219 216.828125 157.71875 208.308594 C 156.351562 205.46875 155 199.375 155 198.125 C 151.910156 201.144531 150.113281 204.808594 150 208.75 C 150.625 216.875 155.066406 219.910156 155 220 C 154.28125 219.703125 140 216.875 140 196.875 C 139.933594 193.664062 140.015625 191.070312 140 188.125 C 139.976562 182.96875 137.625 178.675781 133.589844 175.351562 C 126.796875 169.75 119.976562 164.171875 113.125 158.636719 C 108.449219 154.855469 105.535156 150.203125 105.46875 144.128906 C 105.429688 140.339844 103.636719 137.566406 100.675781 135.328125 C 98.816406 133.925781 96.929688 132.523438 95.246094 130.929688 C 92.269531 128.109375 91.714844 124.621094 92.730469 120.695312 C 92.90625 120.839844 93.050781 120.898438 93.070312 120.988281 C 94.234375 125.710938 97.835938 127.425781 102.226562 128.136719 C 104.578125 128.515625 106.980469 128.679688 109.304688 129.175781 C 111.746094 129.699219 113.128906 131.421875 113.691406 133.773438 C 114.035156 135.230469 114.308594 136.703125 114.648438 138.160156 C 115.304688 140.964844 116.730469 142.136719 119.636719 142.320312 C 121.546875 142.441406 123.460938 142.535156 125.363281 142.726562 C 128.351562 143.023438 130.941406 144.21875 133.253906 146.105469 C 141.324219 152.675781 149.433594 159.199219 157.511719 165.761719 C 159.585938 167.441406 163.125 170 166.875 170 C 171.25 170 176.875 166.875 176.875 160.625 C 176.875 156.875 176.25 155.003906 176.25 155.003906 Z M 176.25 155.003906 "/>
<path style=" stroke:none;fill-rule:nonzero;fill:rgb(0%,0%,0%);fill-opacity:1;" d="M 129.453125 180.363281 C 123.761719 175.671875 118.035156 171.003906 112.300781 166.355469 C 109.09375 171.550781 96.761719 189.996094 79.355469 189.996094 C 70.726562 189.996094 62.824219 184.929688 58.75 177.035156 C 56.300781 172.285156 55 166.773438 55 161.878906 C 55 140.628906 68.375 129.003906 68.695312 128.589844 C 65.066406 127.695312 62.328125 128.074219 59.375 130.039062 C 56.386719 132.03125 50.980469 135.425781 50.585938 135.636719 C 50 135.625 50 135.625 50 135 L 51.875 122.5 C 48.996094 123.46875 42.5 126.875 35 134.375 C 31.25 138.125 28.214844 141.453125 28.214844 141.453125 C 26.25 134.375 29.375 121.875 29.984375 117.5 C 30.34375 114.949219 29.359375 115 29.359375 115 C 28.109375 115 24.375 118.824219 22.5 120.78125 C 16.703125 126.808594 13.023438 133.699219 10.949219 141.820312 C 10.558594 143.359375 10.316406 145.316406 10 146.875 C 10.121094 146.914062 13.125 142.5 15.625 142.5 C 16.875 142.5 16.949219 144.414062 16.910156 145.089844 C 16.84375 146.136719 16.488281 147.179688 16.160156 148.195312 C 13.839844 155.371094 12.515625 162.625 12.460938 170 C 12.433594 173.378906 12.679688 176.78125 13.214844 180.210938 C 14.128906 186.046875 15.550781 190.316406 18.121094 195.625 C 21.75 203.125 28.285156 209.683594 28.746094 210 C 28.429688 208.929688 27.804688 207.476562 27.699219 206.648438 C 27.488281 205.054688 27.164062 203.414062 27.339844 201.839844 C 27.558594 199.859375 29.289062 199.410156 30.730469 200.808594 C 31.375 201.441406 38.453125 208.136719 42.628906 210.863281 C 52.09375 217.046875 62.078125 219.964844 72.5 220 C 77.914062 220.019531 83.445312 219.261719 89.085938 217.78125 C 97.246094 215.636719 104.445312 211.664062 110.863281 206.304688 C 119.089844 199.445312 125.425781 190.644531 130.46875 181.359375 C 130.140625 181.023438 129.84375 180.683594 129.453125 180.363281 Z M 156.601562 110.414062 C 146.640625 116.984375 138.328125 127.898438 131.074219 137.234375 C 131.023438 137.300781 130.996094 137.371094 130.960938 137.433594 C 133.214844 138.253906 135.363281 139.433594 137.359375 141.058594 C 140.023438 143.230469 142.695312 145.386719 145.363281 147.550781 C 145.578125 147.113281 145.78125 146.71875 145.953125 146.355469 C 150.898438 136.171875 156.871094 123.976562 164.433594 115.449219 C 171.824219 107.121094 184.800781 104.546875 194.429688 109.195312 C 195.628906 109.773438 196.601562 110.03125 197.550781 109.996094 C 198.519531 109.960938 199.46875 109.628906 200.625 109.03125 C 208.15625 105.140625 216.289062 103.179688 224.769531 103.234375 C 226.441406 103.25 230 103.75 230 103.75 C 226.875 100.625 222.78125 97.449219 219.21875 95.445312 C 212.59375 91.71875 205.785156 90 198.75 90 C 188.75 90 183.75 93.121094 181.074219 93.121094 C 180 93.121094 179.476562 92.828125 179.105469 92.339844 C 178.78125 91.914062 178.90625 90.960938 179.15625 90.363281 C 180.625 87.5 184.671875 85.226562 185 85 C 181.875 85 174.984375 88.703125 171.019531 91.773438 C 168.355469 93.835938 165.710938 95.921875 163.023438 97.953125 C 162.484375 98.363281 161.835938 98.691406 161.183594 98.878906 C 159.421875 99.394531 158.519531 98.523438 159.039062 96.808594 C 159.273438 96.039062 159.636719 95.289062 160.035156 94.589844 C 160.679688 93.453125 161.410156 92.363281 162.160156 91.175781 C 143.125 103.128906 139.863281 119.53125 140 119.378906 C 145.589844 113.300781 151.910156 108.554688 159.375 105.003906 C 166.851562 101.449219 175 99.378906 184.375 99.378906 C 184.375 99.378906 185 99.886719 185 100.003906 C 185 100.003906 181.25 100.003906 177.273438 101.191406 C 169.769531 102.914062 162.960938 106.214844 156.601562 110.414062 Z M 156.601562 110.414062 "/>
<path style=" stroke:none;fill-rule:nonzero;fill:rgb(0%,0%,0%);fill-opacity:1;" d="M 83.75 56.25 C 83.75 58.75 84.410156 61.234375 85.125 63.316406 C 86.984375 68.746094 90.554688 73.136719 94.621094 77.113281 C 98.628906 81.039062 102.863281 84.738281 106.953125 88.585938 C 111.078125 92.460938 114.664062 96.734375 116.796875 102.015625 C 118 105 118.59375 108.09375 118.125 111.304688 C 117.996094 112.199219 118.324219 112.628906 119.121094 112.96875 C 121.148438 113.835938 122.441406 115.269531 122.550781 117.546875 C 122.601562 118.621094 123.269531 118.449219 123.914062 118.113281 C 127.496094 116.253906 129.140625 113.441406 129.371094 113.128906 C 129.78125 113.984375 130.003906 115.046875 129.996094 116.253906 C 129.933594 122.984375 123.96875 134.03125 118.355469 136.230469 C 118.429688 135.738281 118.484375 135.34375 118.554688 134.949219 C 119.34375 130.511719 117.136719 126.871094 112.789062 125.421875 C 109.855469 124.441406 107.429688 124.421875 104.363281 124.375 C 103.894531 124.371094 102.578125 124.375 101.863281 124.375 C 102.101562 123.835938 103.828125 120.261719 104.214844 118.871094 C 104.765625 116.894531 104.046875 115.484375 102.019531 115.039062 C 99.824219 114.554688 97.539062 114.25 95.296875 114.261719 C 90.136719 114.285156 85.019531 114.90625 80 116.121094 C 79.300781 116.289062 78.171875 116.648438 77.484375 116.875 C 81.859375 116.875 87.484375 118.75 87.484375 118.75 C 87.484375 118.75 84.984375 123.75 84.984375 126.875 C 84.984375 129.375 86.234375 131.25 87.484375 131.25 C 88.734375 131.25 89.429688 130.410156 90 130 C 89.886719 130.679688 89.195312 134.273438 89.101562 135.964844 C 88.953125 138.621094 90 140 93.125 140 C 93.75 140 94.375 140 95 140 C 93.75 144.375 84.339844 150.136719 78.75 150 C 78.378906 149.988281 78.035156 149.953125 77.710938 149.890625 C 80 148.75 83.449219 144.375 83.449219 142.503906 L 75.988281 143.453125 C 75.988281 143.453125 78.535156 140.28125 79.351562 138.683594 C 81.464844 134.558594 81.699219 130.34375 78.898438 126.40625 C 76.535156 123.074219 72.703125 121.648438 68.75 121.253906 C 62.5 121.253906 59.25 123.003906 58.75 123.128906 C 61.59375 116.929688 65.65625 113.105469 71.875 110.003906 C 66.875 107.503906 61.875 106.878906 61.875 106.878906 C 66.875 103.753906 74.375 101.253906 80 100.003906 C 79.375 100.003906 77.816406 100.023438 77.5 100.003906 C 58.75 100.003906 51.40625 109.695312 51.25 110.003906 C 54.273438 110.523438 56.25 110.628906 60 111.878906 C 60 111.878906 50 113.753906 35 125.003906 C 35.101562 124.441406 36.875 120.628906 36.875 116.878906 C 36.875 103.753906 20.253906 106.386719 20 106.253906 C 20.40625 105.890625 23.75 103.128906 34.316406 98.03125 C 36.296875 96.960938 41.875 94.378906 41.875 91.253906 C 41.875 86.878906 33.199219 80.503906 32.5 80.003906 C 39.375 80.003906 43.234375 80.648438 48.75 81.878906 C 45.808594 76.859375 44.988281 71.628906 46.320312 66.441406 C 48.449219 70.441406 51.511719 73.578125 55.238281 76.039062 C 58.671875 78.304688 62.285156 80.300781 65.796875 82.449219 C 68.453125 84.078125 71.214844 85.589844 73.675781 87.476562 C 75.566406 88.925781 77.058594 90.878906 78.714844 92.613281 C 78.988281 92.90625 79.210938 93.246094 79.460938 93.558594 C 79.605469 93.488281 79.746094 93.421875 79.890625 93.351562 C 79.496094 92.363281 79.179688 91.339844 78.695312 90.394531 C 76.730469 86.570312 73.824219 83.503906 70.230469 81.136719 C 68.753906 80.160156 67.949219 79.003906 67.664062 77.371094 C 66.808594 72.523438 66.789062 67.773438 67.71875 63.121094 C 68.226562 60.605469 71.25 55 71.25 55 L 71.25 55.625 C 71.421875 62.25 73.941406 67.554688 78.125 72.5 C 82.515625 77.683594 88.261719 81.523438 93.210938 86.148438 C 101.875 94.375 105.566406 98.988281 106.25 100 C 106.25 100 105.996094 98.929688 105.839844 98.585938 C 103.460938 93.128906 99.605469 88.734375 95.289062 84.695312 C 91.539062 81.183594 87.730469 77.730469 83.914062 74.285156 C 82.535156 73.035156 81.71875 71.550781 81.5 69.734375 C 80.625 62.5 83.683594 56.296875 83.75 56.25 Z M 95 100 C 95 100 95.398438 102.484375 95.996094 103.714844 C 98.75 109.375 105 110 105 110 C 105 110 105 105.625 98.75 101.25 C 96.90625 99.960938 95 100 95 100 Z M 95 100 "/>
<path style=" stroke:none;fill-rule:nonzero;fill:rgb(0%,0%,0%);fill-opacity:1;" d="M 40 63.125 C 41.25 56.875 45 50 45 50 C 45 50 47.316406 57.863281 51.25 63.125 C 53.195312 65.726562 55.796875 68.613281 58.820312 70.609375 C 59.390625 70.984375 59.964844 71.355469 60.550781 71.71875 C 60.441406 68.351562 60.703125 65.050781 61.34375 61.851562 C 61.890625 59.125 63.804688 55.210938 64.996094 52.929688 L 64.996094 52.5 C 65 42.835938 71.714844 35 80 35 C 88.285156 35 95 42.835938 95 52.5 C 95 59.386719 94.445312 62.796875 93.644531 65 C 93.574219 65.183594 93.503906 65.355469 93.433594 65.53125 C 94.089844 66.589844 94.871094 67.660156 95.761719 68.753906 C 95.816406 68.820312 95.859375 68.886719 95.914062 68.949219 C 96.851562 70.078125 97.914062 71.246094 99.164062 72.46875 C 101.519531 74.773438 104.046875 77.078125 106.480469 79.304688 C 108.128906 80.808594 109.78125 82.316406 111.40625 83.84375 C 111.800781 84.214844 112.113281 84.578125 112.488281 84.949219 C 120.210938 76.570312 125 65.710938 125 55 C 125 30 104.855469 15 80 15 C 55.144531 15 35 30.625 35 55 C 35 61.078125 36.589844 67.195312 39.324219 72.898438 C 39.144531 70.203125 39.460938 65.835938 40 63.125 Z M 40 63.125 "/>
</g>
</svg>
